# xmcd
#
# Track frame offsets:
#	150
#	13975
#	30456
#	45758
#	61842
#	81581
#	100129
#	117419
#	138669
#	155338
#	174780
#	193840
#	208760
#	221629
#	235932
#	248850
#	263970
#	281092
#
# Disc length: 3932 seconds
#
# Revision: 1
# Processed by: cddbd v1.5.2PL0 Copyright (c) Steve Scherf et al.
# Submitted via: audiograbber 1.83.01
#
DISCID=040f5a12
DTITLE=Rionegro and Solimoes - Selecao de ouro
DYEAR=1900
DGENRE=
TTITLE0=Cutelinho
TTITLE1=Esperando na janela
TTITLE2=Temporal de lagrimas
TTITLE3=To por ai
TTITLE4=Tarde de chuva
TTITLE5=Lenha
TTITLE6=No fim desta estrada
TTITLE7=So lembrancas
TTITLE8=Estrela guia
TTITLE9=Frio da madrugada
TTITLE10=Laco da paixao
TTITLE11=to indo embora
TTITLE12=Na sola da bota
TTITLE13=De Sao Paulo a Belem
TTITLE14=Bate o pe
TTITLE15=Balanca, mas nao cai
TTITLE16=Saudade aperta
TTITLE17=Peao apaixonado
EXTD=
EXTT0=
EXTT1=
EXTT2=
EXTT3=
EXTT4=
EXTT5=
EXTT6=
EXTT7=
EXTT8=
EXTT9=
EXTT10=
EXTT11=
EXTT12=
EXTT13=
EXTT14=
EXTT15=
EXTT16=
EXTT17=
PLAYORDER=
